<svg version="1.0" xmlns="http://www.w3.org/2000/svg" width="600.000000pt" height="749.000000pt" viewBox="0 0 600.000000 749.000000" preserveAspectRatio="xMidYMid meet" style="width: 589.464px; height: auto;"> <g transform="translate(0.000000,749.000000) scale(0.100000,-0.100000)" fill="#000000" stroke="none" class="">    <path d="M2920 7131 c-81 -8 -186 -35 -210 -54 -8 -7 -32 -46 -52 -88 -42 -85 -35 -79 -235 -158 -56 -22 -121 -49 -145 -59 -24 -11 -83 -36 -133 -56 -94 -40 -197 -101 -233 -139 -29 -31 -148 -268 -212 -422 -29 -71 -77 -186 -105 -255 -29 -69 -100 -240 -158 -380 -58 -140 -137 -329 -177 -420 -39 -91 -125 -289 -190 -440 -65 -151 -137 -318 -160 -370 -73 -164 -167 -371 -209 -463 -48 -103 -53 -93 79 -182 181 -123 501 -251 647 -257 l55 -3 105 180 c57 99 150 269 205 378 55 108 105 197 112 197 6 0 3 5 -7 11 -9 6 -15 14 -12 20 14 21 30 341 19 362 -6 10 -9 -10 -9 -61 -1 -114 -17 -302 -26 -302 -5 0 -5 -8 -2 -17 5 -13 3 -15 -13 -9 -14 5 -16 4 -8 -4 13 -13 -7 -58 -50 -115 -15 -19 -25 -38 -24 -42 3 -15 -34 -93 -45 -93 -6 0 -8 -3 -4 -6 3 -3 -8 -30 -24 -60 -16 -30 -29 -61 -29 -69 0 -8 -5 -15 -11 -15 -6 0 -9 -6 -6 -14 4 -10 0 -14 -12 -11 -14 2 -17 -3 -16 -26 1 -16 0 -27 -3 -25 -6 7 -52 -49 -52 -64 0 -6 -4 -9 -8 -6 -4 2 -9 -4 -10 -15 -1 -10 -3 -28 -4 -39 -3 -22 -14 -26 -21 -7 -3 6 -6 2 -6 -9 -1 -12 -10 -33 -21 -47 -11 -14 -20 -32 -20 -40 0 -9 -5 -19 -12 -23 -6 -4 -8 -3 -5 3 4 6 -4 8 -21 5 -24 -5 -25 -6 -7 -13 12 -5 -1 -6 -30 -2 -27 3 -56 13 -63 22 -8 9 -11 10 -7 4 8 -17 -4 -16 -35 3 -18 11 -19 14 -5 9 14 -4 17 -3 9 5 -7 7 -19 8 -37 1 -17 -7 -27 -7 -29 0 -2 6 -15 12 -30 12 -14 1 -24 6 -20 11 3 5 -2 7 -11 3 -9 -3 -19 -2 -22 2 -2 5 -26 14 -52 20 -35 9 -43 15 -33 22 11 6 8 9 -12 9 -16 0 -28 4 -28 10 0 5 -10 14 -22 20 -22 11 -22 10 -4 -4 26 -21 17 -20 -33 2 -22 10 -38 22 -33 27 4 5 1 5 -5 1 -7 -4 -22 -1 -34 7 -15 11 -17 16 -7 20 12 5 -16 11 -35 8 -5 -1 -6 3 -2 8 3 6 13 8 23 5 13 -4 14 -3 4 4 -8 5 -24 8 -37 6 -13 -1 -29 4 -36 12 -6 8 -17 14 -24 14 -7 0 -15 7 -19 15 -3 8 -12 15 -21 15 -8 0 -15 4 -15 8 0 8 70 -8 190 -44 77 -23 114 -28 70 -10 -56 22 -160 53 -228 67 -34 7 -67 16 -73 20 -12 7 65 169 80 169 5 0 12 7 15 16 3 8 2 12 -4 9 -6 -3 -10 -1 -10 5 0 6 7 13 15 16 8 4 12 10 10 15 -3 5 2 23 12 41 9 18 18 35 18 38 11 43 19 59 28 53 6 -3 7 -1 3 5 -4 6 2 20 13 31 11 11 18 27 15 34 -3 8 2 20 10 27 9 7 13 16 10 21 -5 9 22 69 32 69 3 0 2 -6 -2 -12 -5 -10 -3 -10 7 0 12 11 12 14 0 21 -11 7 -10 12 6 26 13 11 19 25 15 37 -3 12 0 18 9 16 9 -2 14 6 14 22 0 14 5 24 11 23 8 -1 10 6 6 19 -3 13 -1 19 5 15 6 -4 8 4 6 21 -4 24 -3 25 9 11 11 -14 15 -14 27 -2 11 12 10 14 -4 11 -10 -2 -20 3 -23 11 -3 8 0 11 7 7 7 -5 9 -1 5 9 -4 10 -2 15 6 13 7 -2 15 3 18 11 3 8 0 11 -7 7 -7 -5 -9 -1 -5 9 5 13 9 13 22 3 13 -11 14 -10 5 6 -6 10 -8 28 -5 39 5 18 6 18 19 -4 l14 -24 -7 25 c-3 14 -6 27 -6 30 0 23 4 30 13 24 8 -4 9 1 4 16 -5 15 -4 20 4 16 7 -5 9 -1 5 9 -4 10 -2 15 6 13 7 -2 15 3 18 11 3 8 0 11 -7 7 -14 -9 -14 -3 1 29 6 14 15 25 20 25 5 0 6 6 3 13 -4 6 1 3 10 -8 17 -20 17 -20 10 4 -4 13 -3 21 2 18 5 -3 9 2 10 11 5 42 11 79 18 100 6 18 10 21 17 10 8 -10 9 -9 5 4 -8 23 8 74 21 71 6 -2 9 3 6 11 -3 7 2 16 11 20 11 4 14 12 10 26 -6 18 1 24 25 22 3 0 4 18 2 40 -3 28 -1 38 7 34 7 -5 8 -1 4 10 -5 13 -3 15 7 9 10 -6 12 -4 7 8 -3 9 1 18 10 21 9 4 13 14 10 26 -3 11 -1 18 3 15 5 -3 12 0 16 6 4 8 3 9 -4 5 -15 -9 -15 -1 -2 25 6 10 18 19 28 19 13 0 14 2 3 9 -17 11 -4 34 15 27 20 -8 25 8 10 29 -7 10 -11 27 -8 38 4 15 7 16 14 5 7 -10 8 -9 4 5 -8 26 14 69 33 62 13 -5 14 -4 4 6 -16 16 -17 33 -2 23 8 -4 9 0 4 15 -3 12 -2 21 3 21 6 0 12 -5 14 -12 5 -14 28 -2 28 15 0 9 -2 9 -8 1 -5 -9 -10 -9 -18 0 -7 8 -7 20 1 40 7 16 14 23 17 16 3 -9 8 -7 18 6 10 11 10 15 2 10 -19 -11 -5 56 14 71 9 7 13 17 8 24 -5 8 -3 10 6 4 9 -6 10 -2 5 16 -7 21 -6 22 8 10 9 -7 14 -18 10 -24 -3 -6 -1 -7 6 -3 8 5 7 13 -4 29 -19 28 -19 43 0 27 13 -11 14 -10 9 5 -5 11 -3 16 2 12 6 -3 9 8 8 29 -2 23 0 32 8 28 6 -4 8 -3 4 4 -3 6 -1 14 5 17 5 4 8 13 6 19 -3 7 4 18 14 24 10 7 19 17 19 23 0 8 -6 7 -17 -2 -17 -13 -17 -13 0 7 9 11 14 24 10 29 -5 4 0 5 9 2 10 -3 17 -3 17 1 -3 20 2 33 11 27 6 -4 7 5 4 23 -4 19 -1 32 10 41 13 11 16 11 16 1 0 -8 2 -11 5 -8 9 8 -6 38 -16 32 -5 -3 -9 -3 -9 0 0 14 46 102 57 109 7 4 10 14 7 22 -9 21 6 40 18 24 7 -10 8 -7 5 9 -3 13 -3 31 0 39 5 13 8 11 17 -6 11 -20 12 -20 24 -1 10 17 9 18 -6 13 -15 -6 -15 -5 -4 10 8 9 11 21 8 26 -4 5 -2 12 4 16 6 4 8 11 5 16 -4 5 -1 9 4 9 6 0 11 12 11 28 0 21 2 24 10 12 8 -12 10 -9 8 10 -2 15 2 24 9 23 7 -2 10 3 7 11 -6 16 19 71 37 82 7 4 9 3 6 -2 -3 -6 -2 -16 4 -24 6 -11 9 -7 9 16 0 40 16 55 46 44 13 -5 23 -6 23 -2 -3 21 3 32 18 32 9 0 14 3 10 6 -9 9 -48 -6 -42 -17 4 -5 -1 -9 -10 -9 -22 0 -10 17 24 35 18 9 31 11 38 4 6 -6 16 -2 29 12 10 13 13 19 5 14 -9 -5 -12 -4 -8 3 4 5 15 8 25 6 9 -3 27 4 39 15 15 14 23 17 26 8 4 -9 6 -9 6 1 1 7 6 10 13 6 6 -4 8 -3 4 4 -3 6 -1 14 5 18 6 3 15 0 20 -7 7 -12 9 -12 9 0 0 7 6 11 15 8 8 -4 17 -2 21 4 3 5 13 7 22 5 17 -6 44 6 43 18 -3 19 0 26 13 26 8 0 41 14 74 30 73 36 80 37 50 8 -24 -23 -29 -40 -15 -54 6 -7 11 9 8 29 0 4 7 7 16 7 13 0 15 3 5 8 -9 6 -5 12 15 22 16 8 36 21 46 29 15 13 17 12 18 -10 0 -22 1 -23 9 -4 14 37 73 65 84 41 3 -6 5 -4 4 4 -1 8 6 31 14 50 9 19 18 42 21 50 4 13 5 13 9 0 3 -8 24 -73 46 -145 72 -225 120 -402 146 -536 21 -107 23 -139 42 -659 7 -188 18 -265 25 -183 3 23 1 40 -2 37 -4 -2 -6 15 -6 39 1 113 -25 665 -33 706 -5 25 -12 62 -14 81 -3 19 -14 71 -26 114 -16 63 -18 82 -8 89 9 6 7 7 -5 3 -10 -3 -15 -2 -12 4 3 5 1 20 -6 32 -11 21 -34 96 -45 147 -3 13 -11 39 -19 58 -8 18 -11 41 -8 50 5 12 3 14 -7 8 -10 -6 -12 -4 -7 7 3 9 0 24 -7 34 -22 32 -35 101 -22 115 8 9 8 10 -1 5 -22 -12 -14 12 9 28 12 9 17 16 10 16 -7 0 -11 4 -8 9 4 5 1 11 -6 13 -8 3 -6 7 5 11 10 4 17 2 17 -4 0 -7 10 -5 24 4 17 12 26 13 35 4 8 -8 11 -7 11 6 0 13 9 17 35 17 19 0 35 -5 35 -10 0 -6 6 -5 14 2 12 11 9 14 -18 19 -52 9 170 22 259 14 44 -3 83 -11 87 -18 6 -9 8 -9 8 1 0 9 8 8 33 -5 17 -9 35 -16 39 -15 5 1 7 -4 5 -10 -1 -8 6 -12 17 -10 10 2 15 -1 12 -7 -4 -5 -2 -12 4 -16 5 -3 10 -29 10 -57 0 -44 -2 -49 -17 -43 -15 5 -16 4 -5 -7 11 -11 17 -9 33 12 11 14 19 21 18 15 -3 -24 3 -35 28 -47 28 -13 34 -29 12 -37 -7 -2 -9 1 -4 9 5 9 4 11 -4 6 -17 -11 -2 -28 18 -21 9 3 36 -4 59 -15 24 -12 47 -18 52 -15 6 3 10 1 10 -5 0 -7 7 -9 16 -6 8 3 12 2 9 -4 -3 -6 4 -10 17 -10 19 0 20 -2 8 -11 -13 -9 -12 -10 2 -5 10 3 34 -2 55 -11 21 -10 46 -18 55 -19 10 -1 30 -10 45 -20 15 -10 34 -17 42 -16 7 2 10 -1 7 -6 -3 -5 8 -8 24 -7 16 1 27 -2 25 -6 -3 -4 13 -14 36 -23 22 -9 38 -20 35 -24 -3 -5 8 -6 25 -4 21 3 29 0 29 -11 0 -9 4 -19 10 -22 6 -3 7 1 4 10 -5 11 -2 14 10 9 10 -4 15 -12 12 -19 -3 -9 3 -12 19 -10 14 1 22 -1 20 -5 -8 -13 33 -42 47 -34 9 5 8 2 -2 -11 -8 -10 -10 -16 -3 -12 7 4 19 -3 30 -18 10 -15 28 -39 41 -55 13 -16 21 -34 17 -40 -3 -5 6 -27 20 -47 14 -21 25 -45 25 -54 0 -9 7 -22 15 -29 9 -7 14 -19 11 -27 -3 -8 -1 -11 4 -8 6 3 10 -1 10 -10 0 -8 11 -32 23 -53 13 -20 27 -50 31 -67 4 -16 16 -48 27 -72 22 -48 24 -67 7 -57 -7 4 -8 3 -4 -5 4 -6 12 -8 18 -5 7 5 9 0 6 -14 -3 -12 -3 -21 1 -20 24 3 32 -4 26 -23 -6 -16 -4 -20 6 -14 8 5 11 5 7 0 -4 -4 -1 -23 7 -42 8 -19 12 -39 9 -44 -3 -5 2 -9 11 -9 9 0 14 -4 11 -9 -4 -5 -1 -22 6 -38 6 -15 11 -31 10 -35 -1 -5 2 -8 8 -8 5 0 10 -7 10 -15 0 -8 4 -15 9 -15 5 0 12 -7 15 -16 5 -14 4 -15 -9 -4 -9 8 -15 8 -15 2 0 -6 8 -13 18 -16 11 -4 18 -18 20 -43 1 -25 10 -44 25 -56 12 -10 16 -15 8 -11 -16 8 -8 -9 17 -38 8 -10 11 -18 6 -18 -5 0 -2 -5 6 -11 12 -9 11 -10 -7 -6 -15 3 -20 1 -16 -8 2 -8 12 -12 21 -10 12 2 18 -5 19 -26 3 -47 6 -58 14 -54 8 6 31 -20 27 -31 -1 -5 2 -18 8 -29 6 -11 10 -32 9 -47 0 -15 3 -24 9 -21 5 4 7 -1 3 -10 -4 -10 -2 -16 5 -14 7 1 22 -25 34 -58 11 -32 26 -61 32 -63 7 -2 7 -12 0 -33 -6 -17 -8 -33 -4 -36 3 -4 6 1 6 10 0 9 4 19 10 22 5 3 7 0 4 -8 -3 -8 -1 -18 5 -22 6 -3 11 -14 11 -24 0 -9 9 -27 20 -39 12 -12 16 -22 9 -22 -8 0 -6 -7 4 -18 9 -10 20 -33 23 -50 4 -18 11 -32 16 -32 6 0 7 -7 4 -16 -3 -8 -2 -12 4 -9 6 3 10 2 10 -3 0 -5 8 -27 17 -48 9 -22 17 -41 18 -44 1 -3 5 -13 9 -22 4 -9 5 -22 1 -28 -3 -5 0 -13 9 -16 8 -3 18 -19 21 -34 4 -16 15 -40 26 -53 10 -14 20 -33 22 -43 9 -48 20 -73 28 -68 5 3 9 -6 9 -20 0 -14 5 -28 11 -31 6 -4 8 -14 5 -22 -3 -8 -1 -11 4 -8 6 3 10 -5 10 -19 0 -14 5 -26 11 -26 7 0 9 -9 6 -21 -4 -16 -3 -18 8 -9 12 10 14 6 10 -18 -2 -20 2 -32 11 -36 8 -3 14 -12 14 -21 0 -8 5 -15 10 -15 7 0 6 -8 -1 -22 -11 -21 -11 -22 5 -9 14 12 16 12 10 -4 -5 -13 -4 -16 4 -11 8 5 10 1 5 -10 -5 -13 -3 -15 7 -9 10 6 12 2 7 -16 -4 -16 0 -30 14 -45 11 -12 21 -32 23 -45 1 -13 8 -34 14 -46 7 -12 10 -28 9 -35 -2 -7 -2 -10 0 -5 8 14 25 7 19 -8 -3 -8 -2 -15 3 -15 8 0 33 -45 37 -65 5 -29 17 -55 25 -55 16 0 10 -29 -8 -39 -10 -6 -13 -11 -6 -11 6 0 15 5 19 11 9 15 42 -42 36 -63 -2 -10 -13 -20 -23 -23 -10 -4 -19 -12 -19 -18 0 -8 -3 -7 -9 2 -7 10 -12 11 -27 1 -15 -9 -15 -10 -2 -6 9 2 19 -2 22 -10 3 -8 2 -13 -3 -9 -5 3 -23 -6 -40 -21 -17 -14 -36 -22 -42 -18 -8 5 -9 3 -4 -6 6 -10 4 -12 -8 -7 -10 3 -17 2 -17 -3 0 -6 -11 -10 -24 -10 -14 0 -27 -4 -30 -9 -4 -5 4 -7 16 -4 22 4 22 3 -2 -11 -14 -8 -31 -15 -38 -16 -17 0 -43 -26 -35 -34 4 -3 2 -6 -4 -6 -5 0 -13 3 -16 7 -4 3 -19 7 -34 9 -16 1 -22 0 -15 -3 6 -2 12 -9 12 -15 0 -6 -7 -7 -16 -4 -10 4 -13 2 -8 -6 5 -7 2 -9 -9 -5 -11 4 -14 2 -10 -9 4 -11 0 -15 -13 -14 -31 4 -45 0 -40 -9 3 -4 -6 -6 -21 -3 -15 3 -24 1 -20 -5 8 -12 -102 -36 -133 -28 -16 4 -32 0 -45 -10 -20 -16 -20 -16 2 -10 12 3 24 1 28 -5 4 -7 -9 -10 -42 -8 -29 2 -47 -1 -46 -7 1 -6 -11 -12 -27 -13 -22 -2 -30 3 -36 20 -3 13 -15 35 -25 49 -10 14 -15 30 -11 34 4 5 1 4 -7 0 -11 -6 -13 -4 -8 9 4 9 3 15 -2 12 -5 -3 -12 1 -15 10 -3 8 -2 13 2 10 4 -2 14 0 22 5 12 8 11 9 -5 7 -14 -2 -29 11 -51 44 -18 26 -35 44 -39 40 -5 -4 -5 -1 -1 6 5 7 2 21 -6 30 -25 32 -39 63 -32 74 4 6 3 8 -3 5 -13 -8 -26 20 -16 35 3 7 1 8 -5 4 -7 -4 -12 -1 -12 8 0 9 -4 16 -10 16 -5 0 -10 9 -10 19 0 11 -5 23 -10 26 -6 4 -8 11 -5 16 4 5 2 9 -4 9 -5 0 -13 9 -16 20 -4 11 -11 17 -17 14 -6 -4 -8 -2 -4 4 3 6 -3 27 -14 47 -11 19 -19 39 -19 43 3 20 -2 32 -15 32 -11 0 -13 9 -11 33 3 20 1 27 -4 18 -7 -11 -10 -10 -15 6 -3 11 -17 34 -29 51 -22 30 -24 30 -41 14 -18 -16 -18 -16 -6 8 11 21 10 23 -1 12 -12 -12 -17 -29 -20 -82 -2 -24 11 -192 16 -227 3 -17 1 -34 -5 -38 -5 -3 -10 -11 -10 -16 0 -6 4 -8 8 -5 5 3 9 -34 10 -82 1 -48 7 -121 12 -162 6 -41 13 -154 16 -250 3 -96 8 -206 10 -245 2 -38 5 -106 5 -150 1 -44 5 -85 10 -91 5 -6 5 -30 1 -55 -12 -62 -2 -293 17 -436 6 -37 6 -87 2 -110 -5 -23 -5 -41 -2 -38 4 2 8 -24 10 -58 3 -63 3 -88 3 -232 0 -44 2 -114 5 -155 3 -41 6 -97 6 -125 1 -27 5 -53 10 -56 6 -4 6 -62 1 -144 -5 -75 -7 -138 -4 -140 3 -2 7 -54 9 -117 1 -62 5 -116 7 -120 2 -4 5 -50 5 -102 0 -53 5 -98 10 -101 5 -4 9 -12 9 -18 0 -7 -4 -6 -11 3 -8 11 -9 1 -3 -35 3 -27 7 -79 8 -115 1 -36 5 -71 10 -79 6 -10 5 -12 -2 -7 -15 9 -15 5 -2 -31 10 -27 9 -27 -6 -8 -16 20 -16 20 -9 -3 4 -14 2 -23 -7 -26 -7 -2 -33 -9 -58 -16 -25 -7 -56 -20 -68 -27 -13 -8 -26 -12 -29 -9 -3 3 -21 -1 -39 -9 -19 -8 -34 -12 -34 -9 0 3 -13 -4 -30 -16 -16 -12 -35 -18 -41 -14 -8 5 -9 3 -4 -6 6 -10 1 -11 -21 -6 -18 4 -24 3 -16 -2 10 -7 5 -12 -18 -22 -17 -7 -33 -10 -37 -6 -3 3 1 6 10 6 9 0 18 4 21 9 4 5 -3 7 -14 4 -11 -3 -23 -9 -26 -14 -3 -5 -11 -9 -17 -9 -7 0 -6 4 3 10 13 8 12 10 -2 10 -10 0 -18 -4 -18 -8 0 -9 -27 -7 -135 10 -38 7 -73 11 -78 10 -4 -1 -6 4 -5 10 2 7 -4 14 -12 14 -8 1 -20 2 -27 3 -6 0 -19 8 -27 17 -13 13 -53 16 -243 18 -172 3 -227 6 -225 15 1 7 -2 10 -7 6 -6 -3 -8 -11 -5 -18 3 -9 -44 -12 -208 -10 -213 2 -308 -8 -339 -34 -19 -16 -33 -17 -23 -1 4 7 3 8 -5 4 -6 -4 -9 -12 -6 -17 9 -14 -19 -11 -34 3 -11 11 -12 10 -6 -1 7 -13 -9 -31 -30 -31 -5 0 -3 5 5 10 9 6 10 10 3 10 -20 0 -43 -12 -38 -20 4 -6 -166 -7 -185 -1 -3 1 2 6 10 12 12 8 10 9 -9 4 -13 -4 -21 -3 -18 2 3 5 -7 8 -23 5 -21 -3 -35 2 -52 20 -13 14 -40 28 -60 32 -21 4 -44 14 -53 22 -9 9 -15 11 -15 4 0 -7 -9 -6 -27 4 -44 24 -104 46 -98 36 3 -6 1 -10 -5 -10 -6 0 -13 6 -16 14 -3 8 -12 12 -20 9 -10 -4 -12 0 -8 11 3 9 1 16 -5 16 -7 0 -5 10 5 26 14 20 15 27 5 34 -10 5 -11 23 -6 66 3 33 8 105 10 162 1 56 5 109 8 116 3 8 2 30 -3 47 -7 23 -6 35 1 40 7 4 9 33 5 83 -3 42 -2 76 3 76 4 0 8 24 9 53 0 28 3 78 5 111 3 38 2 54 -4 45 -6 -9 -8 15 -5 66 3 44 5 111 5 149 0 46 3 66 10 61 6 -3 11 -1 11 4 0 6 -4 11 -10 11 -6 0 -10 34 -10 83 0 51 4 77 9 68 5 -8 7 46 3 134 -3 104 -2 146 6 141 7 -4 7 3 -1 23 -8 22 -8 36 0 54 6 14 9 51 6 90 -3 37 -1 72 4 79 5 7 9 45 8 83 0 39 2 72 6 75 9 7 15 147 7 156 -4 3 -2 16 3 27 8 15 8 22 -2 28 -10 6 -11 9 -1 9 6 0 12 7 12 15 0 8 -4 15 -10 15 -5 0 -10 17 -9 38 0 30 2 33 9 17 7 -16 9 -13 8 15 -1 19 -6 41 -12 49 -8 11 -8 13 0 8 9 -5 11 43 8 179 -3 126 -1 183 6 179 7 -4 8 7 4 34 -5 29 -3 41 5 41 7 0 9 5 6 11 -10 16 -13 59 -4 59 4 0 9 -6 12 -12 2 -7 2 -4 -1 7 -3 11 -6 47 -8 80 -4 59 -4 60 11 30 13 -26 14 -26 9 -5 -4 14 -10 29 -15 35 -14 15 -10 28 6 21 17 -6 20 9 4 20 -8 4 -9 24 -5 58 11 78 15 446 5 451 -13 9 -18 -47 -24 -310 -3 -137 -10 -293 -15 -345 -5 -52 -14 -261 -20 -465 -6 -203 -17 -496 -25 -650 -7 -154 -17 -392 -20 -530 -3 -137 -10 -335 -15 -440 -13 -271 -25 -623 -25 -744 l0 -105 125 -43 c69 -23 161 -59 205 -80 77 -36 84 -37 190 -38 111 0 171 12 255 53 29 14 74 17 279 20 135 1 249 6 255 11 6 5 101 6 211 2 197 -7 201 -7 272 -39 93 -42 168 -55 270 -49 59 3 97 12 140 32 32 15 106 42 166 61 59 18 121 41 138 49 28 15 30 19 24 58 -3 23 -10 175 -15 337 -6 162 -14 394 -20 515 -5 121 -14 362 -20 535 -5 173 -15 394 -20 490 -6 96 -15 317 -20 490 -5 173 -16 421 -25 550 -17 267 -36 663 -31 667 1 2 35 -61 74 -139 70 -139 166 -314 289 -528 l61 -105 53 3 c190 10 558 171 741 324 l28 23 -81 175 c-86 187 -184 404 -229 510 -56 130 -99 228 -155 355 -63 144 -122 282 -244 575 -94 225 -107 256 -155 366 -20 45 -36 85 -36 88 0 4 -9 26 -19 49 -11 23 -28 65 -39 92 -65 164 -119 289 -189 430 -59 122 -89 171 -125 206 -52 52 -181 122 -310 170 -45 16 -87 34 -93 38 -5 5 -28 14 -50 21 -22 7 -56 21 -75 31 -19 11 -38 19 -43 19 -18 0 -113 49 -129 66 -9 11 -28 46 -43 79 -29 69 -63 96 -140 113 -68 15 -224 22 -315 13z m-200 -105 c0 -3 -4 -8 -10 -11 -5 -3 -10 -1 -10 4 0 6 5 11 10 11 6 0 10 -2 10 -4z m-428 -273 c-6 -2 -10 -9 -6 -14 3 -5 1 -9 -5 -9 -5 0 -12 4 -15 9 -6 9 10 19 29 19 6 0 4 -2 -3 -5z m-232 -107 c0 -11 -19 -15 -25 -6 -3 5 1 10 9 10 9 0 16 -2 16 -4z m-399 -643 c-12 -20 -14 -14 -5 12 4 9 9 14 11 11 3 -2 0 -13 -6 -23z m2969 -578 c0 -5 -5 -3 -10 5 -5 8 -10 20 -10 25 0 6 5 3 10 -5 5 -8 10 -19 10 -25z m-3219 -62 c13 -16 12 -17 -3 -4 -10 7 -18 15 -18 17 0 8 8 3 21 -13z m3819 -1313 c0 -5 -2 -10 -4 -10 -3 0 -8 5 -11 10 -3 6 -1 10 4 10 6 0 11 -4 11 -10z m-3323 -312 c-3 -8 -6 -5 -6 6 -1 11 2 17 5 13 3 -3 4 -12 1 -19z m2843 -298 c8 -5 11 -10 5 -10 -5 0 -17 5 -25 10 -8 5 -10 10 -5 10 6 0 17 -5 25 -10z m-2943 -2102 c-3 -8 -6 -5 -6 6 -1 11 2 17 5 13 3 -3 4 -12 1 -19z m1698 -868 c3 -6 -1 -7 -9 -4 -18 7 -21 14 -7 14 6 0 13 -4 16 -10z" class=""></path> <path d="M2978 7103 c7 -3 16 -2 19 1 4 3 -2 6 -13 5 -11 0 -14 -3 -6 -6z"></path> <path d="M2950 7075 c0 -8 2 -15 4 -15 2 0 6 7 10 15 3 8 1 15 -4 15 -6 0 -10 -7 -10 -15z"></path> <path d="M3148 7083 c7 -3 16 -2 19 1 4 3 -2 6 -13 5 -11 0 -14 -3 -6 -6z"></path> <path d="M2665 7070 c-4 -6 -11 -7 -17 -4 -7 4 -8 2 -4 -5 6 -9 11 -9 22 0 14 11 18 19 10 19 -3 0 -8 -5 -11 -10z"></path> <path d="M3285 7041 c-3 -6 3 -15 14 -21 14 -7 22 -7 26 0 4 6 3 10 -2 9 -20 -3 -34 2 -28 11 3 6 4 10 1 10 -3 0 -7 -4 -11 -9z"></path> <path d="M3148 6953 c12 -2 32 -2 45 0 12 2 2 4 -23 4 -25 0 -35 -2 -22 -4z"></path>  <path d="M3251 6946 c2 -2 18 -6 34 -10 22 -5 26 -4 15 4 -14 9 -59 15 -49 6z"></path> <path d="M2593 6849 c-2 -23 3 -25 10 -4 4 8 3 16 -1 19 -4 3 -9 -4 -9 -15z"></path> <path d="M2303 6829 c-2 -23 3 -25 10 -4 4 8 3 16 -1 19 -4 3 -9 -4 -9 -15z"></path> <path d="M2721 6744 c0 -11 3 -14 6 -6 3 7 2 16 -1 19 -3 4 -6 -2 -5 -13z"></path>  <path d="M2681 6674 c0 -11 3 -14 6 -6 3 7 2 16 -1 19 -3 4 -6 -2 -5 -13z"></path> <path d="M1920 6676 c0 -2 8 -10 18 -17 15 -13 16 -12 3 4 -13 16 -21 21 -21 13z"></path> <path d="M1957 6669 c7 -7 15 -10 18 -7 3 3 -2 9 -12 12 -14 6 -15 5 -6 -5z"></path> <path d="M2641 6654 c0 -11 3 -14 6 -6 3 7 2 16 -1 19 -3 4 -6 -2 -5 -13z"></path> <path d="M1966 6558 c5 -8 1 -9 -12 -4 -14 5 -16 4 -7 -4 7 -8 17 -9 28 -3 16 9 16 10 1 16 -12 5 -15 3 -10 -5z"></path> <path d="M3212 6550 c0 -14 2 -19 5 -12 2 6 2 18 0 25 -3 6 -5 1 -5 -13z"></path> <path d="M3241 6534 c0 -11 3 -14 6 -6 3 7 2 16 -1 19 -3 4 -6 -2 -5 -13z"></path> <path d="M3192 6510 c0 -14 2 -19 5 -12 2 6 2 18 0 25 -3 6 -5 1 -5 -13z"></path> <path d="M4215 6509 c-6 -8 -4 -10 5 -4 10 6 12 4 6 -11 -6 -15 -5 -17 5 -6 9 9 10 15 2 23 -8 8 -13 7 -18 -2z"></path> <path d="M2282 6475 c0 -16 4 -41 8 -55 l8 -25 0 25 c0 14 -4 39 -8 55 l-8 30 0 -30z"></path>  <path d="M1931 6460 c-1 -8 11 -80 25 -160 14 -80 27 -170 29 -201 1 -31 6 -62 10 -68 4 -7 7 -49 7 -94 0 -54 2 -75 8 -62 5 11 9 45 9 76 1 82 -84 576 -88 509z"></path> <path d="M4151 6453 c0 -11 3 -13 6 -5 2 6 10 9 15 6 7 -4 8 -2 4 4 -11 18 -26 14 -25 -5z"></path> <path d="M4076 6438 c-3 -13 -6 -40 -6 -60 0 -20 -4 -40 -10 -43 -5 -3 -10 -30 -9 -58 l1 -52 12 60 c13 61 27 175 21 175 -1 0 -5 -10 -9 -22z"></path> <path d="M1776 6442 c-3 -5 1 -9 9 -9 8 0 12 4 9 9 -3 4 -7 8 -9 8 -2 0 -6 -4 -9 -8z"></path> <path d="M4280 6446 c0 -2 8 -10 18 -17 15 -13 16 -12 3 4 -13 16 -21 21 -21 13z"></path>  <path d="M3171 6413 c0 -12 -4 -30 -7 -40 -5 -14 -4 -15 5 -7 7 6 11 24 8 40 -3 21 -4 23 -6 7z"></path> <path d="M3281 6414 c0 -11 3 -14 6 -6 3 7 2 16 -1 19 -3 4 -6 -2 -5 -13z"></path> <path d="M1873 6388 c-4 -7 -9 -76 -10 -153 -3 -112 -1 -137 9 -127 9 9 13 54 13 152 0 77 -1 140 -2 140 -1 0 -5 -6 -10 -12z"></path> <path d="M2720 6385 c0 -5 5 -17 10 -25 5 -8 10 -10 10 -5 0 6 -5 17 -10 25 -5 8 -10 11 -10 5z"></path> <path d="M4151 6340 l1 -55 9 45 c5 28 5 48 -1 54 -7 7 -10 -9 -9 -44z"></path> <path d="M3832 6355 c0 -16 2 -22 5 -12 2 9 2 23 0 30 -3 6 -5 -1 -5 -18z"></path> <path d="M3149 6345 c-3 -6 -6 -28 -7 -50 l-1 -40 10 39 c9 39 8 70 -2 51z"></path> <path d="M3251 6334 c0 -11 3 -14 6 -6 3 7 2 16 -1 19 -3 4 -6 -2 -5 -13z"></path>  <path d="M2760 6300 c0 -5 5 -10 11 -10 5 0 7 5 4 10 -3 6 -8 10 -11 10 -2 0 -4 -4 -4 -10z"></path>  <path d="M2791 6254 c0 -11 3 -14 6 -6 3 7 2 16 -1 19 -3 4 -6 -2 -5 -13z"></path> <path d="M3206 6244 c-4 -14 -5 -29 -2 -31 3 -3 8 7 12 21 3 15 4 29 1 32 -2 3 -8 -7 -11 -22z"></path> <path d="M4011 6254 c0 -11 3 -14 6 -6 3 7 2 16 -1 19 -3 4 -6 -2 -5 -13z"></path> <path d="M4246 6247 c3 -10 9 -15 12 -12 3 3 0 11 -7 18 -10 9 -11 8 -5 -6z"></path> <path d="M3126 6218 c-3 -13 -5 -52 -4 -88 1 -65 1 -65 8 20 7 90 6 105 -4 68z"></path> <path d="M2806 6207 c3 -10 9 -15 12 -12 3 3 0 11 -7 18 -10 9 -11 8 -5 -6z"></path> <path d="M3174 6197 c-1 -12 -4 -31 -6 -42 -3 -11 -3 -14 -1 -7 3 6 9 12 14 12 11 0 12 47 2 53 -5 3 -9 -5 -9 -16z"></path>  <path d="M4035 6161 c-3 -5 -1 -12 5 -16 5 -3 10 1 10 9 0 18 -6 21 -15 7z"></path> <path d="M4160 6160 c0 -5 5 -10 10 -10 6 0 10 5 10 10 0 6 -4 10 -10 10 -5 0 -10 -4 -10 -10z"></path>  <path d="M1736 6104 c-3 -9 -4 -19 -1 -22 3 -3 5 1 5 9 0 11 2 11 10 -1 5 -8 10 -10 10 -5 0 6 -4 16 -9 23 -6 11 -10 10 -15 -4z"></path> <path d="M1877 6100 c-14 -17 -15 -21 -3 -26 10 -4 13 -17 10 -42 -2 -20 1 -62 5 -92 8 -47 9 -38 9 63 -1 64 -2 117 -2 117 -1 0 -9 -9 -19 -20z"></path> <path d="M4130 6086 c0 -8 5 -16 11 -18 8 -3 9 -15 4 -37 -5 -25 -10 -30 -16 -20 -5 9 -9 -9 -9 -48 0 -36 4 -63 10 -63 6 0 10 14 10 32 0 17 5 46 11 63 13 34 5 105 -11 105 -6 0 -10 -6 -10 -14z"></path> <path d="M4017 6073 c-9 -9 -7 -92 3 -123 6 -17 8 -2 9 53 1 77 0 83 -12 70z"></path> <path d="M1735 6059 c-4 -6 -5 -12 -2 -15 2 -3 7 2 10 11 7 17 1 20 -8 4z"></path> <path d="M2071 6034 c0 -11 3 -14 6 -6 3 7 2 16 -1 19 -3 4 -6 -2 -5 -13z"></path> <path d="M3114 5920 c0 -74 1 -105 3 -67 2 37 2 97 0 135 -2 37 -3 6 -3 -68z"></path> <path d="M4045 5970 c3 -5 8 -10 11 -10 2 0 4 5 4 10 0 6 -5 10 -11 10 -5 0 -7 -4 -4 -10z"></path>  <path d="M1910 5895 c0 -32 3 -56 6 -52 3 3 6 26 6 52 0 26 -3 49 -6 53 -3 3 -6 -21 -6 -53z"></path> <path d="M1646 5912 l-19 -27 24 22 c12 12 21 24 18 27 -2 2 -13 -8 -23 -22z"></path> <path d="M1951 5904 c0 -11 3 -14 6 -6 3 7 2 16 -1 19 -3 4 -6 -2 -5 -13z"></path> <path d="M4390 5904 c0 -8 5 -12 10 -9 6 4 8 11 5 16 -9 14 -15 11 -15 -7z"></path> <path d="M1833 5865 c0 -22 2 -30 4 -17 2 12 2 30 0 40 -3 9 -5 -1 -4 -23z"></path> <path d="M4107 5818 c-4 -40 -10 -84 -14 -97 -4 -16 -2 -22 4 -18 18 11 42 187 25 187 -5 0 -12 -33 -15 -72z"></path> <path d="M4361 5864 c0 -11 3 -14 6 -6 3 7 2 16 -1 19 -3 4 -6 -2 -5 -13z"></path> <path d="M4406 5863 c-6 -14 -5 -15 5 -6 7 7 10 15 7 18 -3 3 -9 -2 -12 -12z"></path> <path d="M1912 5800 c0 -14 2 -19 5 -12 2 6 2 18 0 25 -3 6 -5 1 -5 -13z"></path> <path d="M4042 5795 c0 -16 2 -22 5 -12 2 9 2 23 0 30 -3 6 -5 -1 -5 -18z"></path> <path d="M1742 5780 c0 -19 2 -27 5 -17 2 9 2 25 0 35 -3 9 -5 1 -5 -18z"></path> <path d="M1963 5758 c1 -16 5 -28 9 -28 4 0 5 -26 2 -57 -2 -32 -6 -110 -9 -173 -6 -140 -23 -337 -31 -367 -4 -13 -2 -23 4 -23 11 0 9 -27 -8 -125 -5 -27 -10 -93 -11 -145 -1 -52 -5 -133 -10 -180 -5 -46 -5 -88 0 -93 4 -4 13 88 20 205 7 117 16 247 22 288 9 75 25 310 35 535 5 97 3 127 -10 155 -14 33 -15 33 -13 8z"></path> <path d="M1931 5744 c0 -11 3 -14 6 -6 3 7 2 16 -1 19 -3 4 -6 -2 -5 -13z"></path> <path d="M4436 5747 c3 -10 9 -15 12 -12 3 3 0 11 -7 18 -10 9 -11 8 -5 -6z"></path> <path d="M2941 5714 c0 -11 3 -14 6 -6 3 7 2 16 -1 19 -3 4 -6 -2 -5 -13z"></path> <path d="M3102 5655 c-2 -44 -4 -115 -6 -158 -2 -46 0 -75 6 -69 5 5 7 76 5 158 -1 82 -4 113 -5 69z"></path> <path d="M1530 5665 c0 -8 4 -15 10 -15 5 0 7 7 4 15 -4 8 -8 15 -10 15 -2 0 -4 -7 -4 -15z"></path> <path d="M1942 5620 c0 -19 2 -27 5 -17 2 9 2 25 0 35 -3 9 -5 1 -5 -18z"></path>  <path d="M4500 5611 c0 -6 4 -13 10 -16 6 -3 7 1 4 9 -7 18 -14 21 -14 7z"></path> <path d="M1500 5580 c-9 -6 -10 -10 -3 -10 6 0 15 5 18 10 8 12 4 12 -15 0z"></path>  <path d="M1496 5503 c-6 -14 -5 -15 5 -6 7 7 10 15 7 18 -3 3 -9 -2 -12 -12z"></path>  <path d="M1435 5450 c-3 -5 -1 -10 4 -10 6 0 11 5 11 10 0 6 -2 10 -4 10 -3 0 -8 -4 -11 -10z"></path>   <path d="M1678 5383 c5 -21 7 -23 10 -9 2 10 0 22 -6 28 -6 6 -7 0 -4 -19z"></path> <path d="M2902 5385 c0 -16 2 -22 5 -12 2 9 2 23 0 30 -3 6 -5 -1 -5 -18z"></path> <path d="M2932 5320 c-1 -52 3 -266 8 -475 5 -209 12 -544 16 -745 4 -201 9 -367 12 -370 8 -9 -16 1418 -28 1580 l-7 105 -1 -95z"></path> <path d="M3088 5253 c-2 -87 0 -178 3 -203 4 -25 7 46 8 158 0 111 -1 202 -3 202 -3 0 -6 -71 -8 -157z"></path> <path d="M4073 5285 c0 -33 2 -45 4 -27 2 18 2 45 0 60 -2 15 -4 0 -4 -33z"></path> <path d="M1682 5290 c0 -14 2 -19 5 -12 2 6 2 18 0 25 -3 6 -5 1 -5 -13z"></path> <path d="M2902 5270 c0 -14 2 -19 5 -12 2 6 2 18 0 25 -3 6 -5 1 -5 -13z"></path>  <path d="M4086 5080 c8 -43 14 -51 14 -19 0 13 -5 31 -10 39 -7 11 -8 5 -4 -20z"></path> <path d="M4091 4994 c0 -11 3 -14 6 -6 3 7 2 16 -1 19 -3 4 -6 -2 -5 -13z"></path> <path d="M2902 4945 c0 -16 2 -22 5 -12 2 9 2 23 0 30 -3 6 -5 -1 -5 -18z"></path>  <path d="M3084 4865 c0 -49 1 -71 3 -48 2 23 2 64 0 90 -2 26 -3 8 -3 -42z"></path>  <path d="M2901 4874 c0 -11 3 -14 6 -6 3 7 2 16 -1 19 -3 4 -6 -2 -5 -13z"></path> <path d="M2903 4810 c0 -25 2 -35 4 -22 2 12 2 32 0 45 -2 12 -4 2 -4 -23z"></path> <path d="M3083 4730 c0 -25 2 -35 4 -22 2 12 2 32 0 45 -2 12 -4 2 -4 -23z"></path>  <path d="M4122 4665 c0 -16 2 -22 5 -12 2 9 2 23 0 30 -3 6 -5 -1 -5 -18z"></path>  <path d="M3081 4624 c0 -11 3 -14 6 -6 3 7 2 16 -1 19 -3 4 -6 -2 -5 -13z"></path>  <path d="M2901 4544 c0 -11 3 -14 6 -6 3 7 2 16 -1 19 -3 4 -6 -2 -5 -13z"></path> <path d="M3081 4534 c0 -11 3 -14 6 -6 3 7 2 16 -1 19 -3 4 -6 -2 -5 -13z"></path>  <path d="M3076 4455 c-9 -26 -7 -32 5 -12 6 10 9 21 6 23 -2 3 -7 -2 -11 -11z"></path>  <path d="M3072 4400 c0 -14 2 -19 5 -12 2 6 2 18 0 25 -3 6 -5 1 -5 -13z"></path> <path d="M886 4362 c-3 -5 1 -9 9 -9 8 0 12 4 9 9 -3 4 -7 8 -9 8 -2 0 -6 -4 -9 -8z"></path> <path d="M3068 4248 c-2 -68 0 -139 3 -158 4 -19 7 36 8 123 0 86 -1 157 -3 157 -3 0 -6 -55 -8 -122z"></path> <path d="M916 4243 c-6 -14 -5 -15 5 -6 7 7 10 15 7 18 -3 3 -9 -2 -12 -12z"></path>  <path d="M5127 4147 c-3 -8 1 -14 8 -14 7 0 11 6 8 14 -3 7 -6 13 -8 13 -2 0 -5 -6 -8 -13z"></path>   <path d="M755 4039 c-4 -6 -5 -12 -2 -15 2 -3 7 2 10 11 7 17 1 20 -8 4z"></path> <path d="M866 4037 c3 -10 9 -15 12 -12 3 3 0 11 -7 18 -10 9 -11 8 -5 -6z"></path> <path d="M1766 4038 c3 -4 9 -8 15 -8 5 0 9 4 9 8 0 5 -7 9 -15 9 -8 0 -12 -4 -9 -9z"></path> <path d="M3060 4019 c0 -11 5 -17 10 -14 6 3 10 13 10 21 0 8 -4 14 -10 14 -5 0 -10 -9 -10 -21z"></path> <path d="M815 4009 c-4 -6 -5 -12 -2 -15 2 -3 7 2 10 11 7 17 1 20 -8 4z"></path> <path d="M860 4000 c6 -11 13 -20 16 -20 2 0 0 9 -6 20 -6 11 -13 20 -16 20 -2 0 0 -9 6 -20z"></path> <path d="M3065 3978 c-2 -7 -5 -130 -8 -273 -2 -157 -1 -226 4 -175 8 84 17 460 11 460 -1 0 -4 -6 -7 -12z"></path> <path d="M1821 3930 c1 -8 -1 -23 -6 -33 -11 -27 -1 -29 11 -2 7 14 8 28 2 37 -7 10 -8 10 -7 -2z"></path>  <path d="M5424 3742 c4 -6 2 -22 -4 -34 -11 -22 -10 -22 4 -4 19 24 20 32 4 42 -7 4 -8 3 -4 -4z"></path> <path d="M2960 3690 c0 -18 4 -29 10 -25 6 3 10 15 10 25 0 10 -4 22 -10 25 -6 4 -10 -7 -10 -25z"></path> <path d="M643 3695 c0 -8 4 -12 9 -9 5 3 6 10 3 15 -9 13 -12 11 -12 -6z"></path> <path d="M4340 3695 c0 -5 5 -17 10 -25 5 -8 10 -10 10 -5 0 6 -5 17 -10 25 -5 8 -10 11 -10 5z"></path> <path d="M5203 3693 c9 -2 25 -2 35 0 9 3 1 5 -18 5 -19 0 -27 -2 -17 -5z"></path>  <path d="M5155 3680 c-3 -5 1 -10 9 -10 9 0 16 5 16 10 0 6 -4 10 -9 10 -6 0 -13 -4 -16 -10z"></path> <path d="M649 3663 c-13 -16 -12 -17 4 -4 9 7 17 15 17 17 0 8 -8 3 -21 -13z"></path> <path d="M4101 3664 c0 -11 3 -14 6 -6 3 7 2 16 -1 19 -3 4 -6 -2 -5 -13z"></path> <path d="M5115 3670 c-3 -5 1 -10 10 -10 9 0 13 5 10 10 -3 6 -8 10 -10 10 -2 0 -7 -4 -10 -10z"></path> <path d="M5055 3650 c-13 -5 -14 -9 -5 -9 8 0 24 4 35 9 13 5 14 9 5 9 -8 0 -24 -4 -35 -9z"></path> <path d="M2964 3636 c-4 -9 -4 -33 -1 -54 4 -20 7 -143 9 -272 1 -129 5 -269 8 -310 3 -41 4 87 1 285 -2 198 -5 362 -7 364 -2 2 -6 -4 -10 -13z"></path> <path d="M1027 3634 c-5 -5 24 -21 138 -77 14 -6 17 -6 10 1 -18 19 -142 82 -148 76z"></path> <path d="M5005 3630 c-19 -8 -19 -9 3 -9 12 -1 22 4 22 9 0 6 -1 10 -2 9 -2 0 -12 -4 -23 -9z"></path>  <path d="M735 3612 c-10 -7 -18 -32 -10 -32 2 0 9 9 15 20 12 22 11 24 -5 12z"></path> <path d="M4955 3610 c-3 -5 -1 -10 4 -10 6 0 11 5 11 10 0 6 -2 10 -4 10 -3 0 -8 -4 -11 -10z"></path> <path d="M4872 3564 c-24 -14 -41 -28 -39 -30 7 -7 57 18 57 28 0 4 6 8 14 8 8 0 18 5 21 10 10 17 -8 11 -53 -16z"></path>  <path d="M4799 3523 c-2 -5 -20 -18 -39 -31 -19 -12 -28 -22 -20 -21 19 0 76 46 68 54 -3 4 -8 2 -9 -2z"></path> <path d="M1230 3510 c0 -5 7 -10 16 -10 8 0 12 5 9 10 -3 6 -10 10 -16 10 -5 0 -9 -4 -9 -10z"></path> <path d="M1911 3474 c0 -11 3 -14 6 -6 3 7 2 16 -1 19 -3 4 -6 -2 -5 -13z"></path> <path d="M1300 3476 c0 -2 7 -7 16 -10 8 -3 12 -2 9 4 -6 10 -25 14 -25 6z"></path> <path d="M1586 3443 c-6 -14 -5 -15 5 -6 7 7 10 15 7 18 -3 3 -9 -2 -12 -12z"></path> <path d="M3054 3320 c0 -69 1 -97 3 -62 2 34 2 90 0 125 -2 34 -3 6 -3 -63z"></path>  <path d="M4516 3367 c3 -10 9 -15 12 -12 3 3 0 11 -7 18 -10 9 -11 8 -5 -6z"></path>  <path d="M1484 3358 c-4 -7 -4 -10 1 -6 4 4 14 0 22 -10 13 -15 13 -15 3 6 -12 25 -16 27 -26 10z"></path> <path d="M4680 3356 c0 -2 7 -7 16 -10 8 -3 12 -2 9 4 -6 10 -25 14 -25 6z"></path>  <path d="M3052 3165 c0 -16 2 -22 5 -12 2 9 2 23 0 30 -3 6 -5 -1 -5 -18z"></path>  <path d="M3053 3040 c0 -47 2 -66 4 -42 2 23 2 61 0 85 -2 23 -4 4 -4 -43z"></path>  <path d="M3047 2891 c-4 -18 -6 -63 -6 -100 l2 -66 8 90 c9 95 7 133 -4 76z"></path> <path d="M3080 2858 c0 -9 5 -20 10 -23 13 -8 13 5 0 25 -8 13 -10 13 -10 -2z"></path> <path d="M2987 2630 c3 -124 9 -261 13 -305 4 -44 5 32 3 173 -3 138 -9 276 -13 305 -4 29 -6 -48 -3 -173z"></path>  <path d="M4165 2820 c3 -5 8 -10 11 -10 2 0 4 5 4 10 0 6 -5 10 -11 10 -5 0 -7 -4 -4 -10z"></path> <path d="M3072 2790 c0 -14 2 -19 5 -12 2 6 2 18 0 25 -3 6 -5 1 -5 -13z"></path> <path d="M3029 2643 c0 -16 -1 -43 -2 -61 -1 -17 1 -32 6 -32 4 0 7 27 7 60 0 59 -9 87 -11 33z"></path>  <path d="M3026 2458 c-3 -13 -5 -54 -4 -93 l1 -70 7 90 c7 95 6 110 -4 73z"></path> <path d="M1850 2351 c0 -12 5 -21 10 -21 6 0 10 6 10 14 0 8 -4 18 -10 21 -5 3 -10 -3 -10 -14z"></path> <path d="M3023 2210 c0 -47 2 -66 4 -42 2 23 2 61 0 85 -2 23 -4 4 -4 -43z"></path>  <path d="M3832 2200 c0 -14 2 -19 5 -12 2 6 2 18 0 25 -3 6 -5 1 -5 -13z"></path> <path d="M3002 2071 c-1 -90 2 -141 7 -136 15 16 25 65 12 65 -6 0 -12 40 -14 108 -3 99 -3 96 -5 -37z"></path>  <path d="M3022 2090 c0 -19 2 -27 5 -17 2 9 2 25 0 35 -3 9 -5 1 -5 -18z"></path>  <path d="M1841 2004 c0 -11 3 -14 6 -6 3 7 2 16 -1 19 -3 4 -6 -2 -5 -13z"></path> <path d="M3015 1886 c-4 -24 -3 -73 2 -108 10 -61 10 -59 9 44 -1 60 -2 108 -3 108 -1 0 -5 -20 -8 -44z"></path> <path d="M4191 1904 c0 -11 3 -14 6 -6 3 7 2 16 -1 19 -3 4 -6 -2 -5 -13z"></path>  <path d="M1831 1834 c0 -11 3 -14 6 -6 3 7 2 16 -1 19 -3 4 -6 -2 -5 -13z"></path> <path d="M2171 1794 c0 -11 3 -14 6 -6 3 7 2 16 -1 19 -3 4 -6 -2 -5 -13z"></path>  <path d="M1832 1765 c0 -16 2 -22 5 -12 2 9 2 23 0 30 -3 6 -5 -1 -5 -18z"></path> <path d="M3021 1674 c0 -11 3 -14 6 -6 3 7 2 16 -1 19 -3 4 -6 -2 -5 -13z"></path> <path d="M3023 1610 c0 -25 2 -35 4 -22 2 12 2 32 0 45 -2 12 -4 2 -4 -23z"></path> <path d="M1824 1566 c-3 -8 -4 -27 -2 -43 3 -23 5 -20 9 15 5 43 2 53 -7 28z"></path> <path d="M4223 1530 c0 -25 2 -35 4 -22 2 12 2 32 0 45 -2 12 -4 2 -4 -23z"></path> <path d="M3034 1345 c0 -82 2 -115 3 -72 2 43 2 110 0 150 -1 40 -3 5 -3 -78z"></path>  <path d="M3037 1131 c-4 -19 -5 -36 -2 -39 10 -11 16 7 13 40 l-3 33 -8 -34z"></path> <path d="M3053 970 c0 -25 2 -35 4 -22 2 12 2 32 0 45 -2 12 -4 2 -4 -23z"></path> <path d="M3057 907 c-3 -8 -1 -20 4 -28 6 -10 9 -7 9 14 0 29 -5 35 -13 14z"></path> <path d="M3050 840 c0 -5 5 -10 10 -10 6 0 10 5 10 10 0 6 -4 10 -10 10 -5 0 -10 -4 -10 -10z"></path> <path d="M2092 750 c0 -14 2 -19 5 -12 2 6 2 18 0 25 -3 6 -5 1 -5 -13z"></path>  <path d="M1692 610 c0 -14 2 -19 5 -12 2 6 2 18 0 25 -3 6 -5 1 -5 -13z"></path> <path d="M3073 512 c1 -14 5 -18 11 -12 7 7 6 14 -1 21 -9 9 -12 7 -10 -9z"></path> <path d="M1993 505 c0 -8 4 -12 9 -9 5 3 6 10 3 15 -9 13 -12 11 -12 -6z"></path> <path d="M3108 503 c6 -2 18 -2 25 0 6 3 1 5 -13 5 -14 0 -19 -2 -12 -5z"></path>  <path d="M4098 393 c7 -3 16 -2 19 1 4 3 -2 6 -13 5 -11 0 -14 -3 -6 -6z"></path>    </g> </svg>